<svg width="40" height="40" viewBox="0 0 545 545" version="1.1" xmlns="http://www.w3.org/2000/svg" xmlns:xlink="http://www.w3.org/1999/xlink" xml:space="preserve" xmlns:serif="http://www.serif.com/" style="fill-rule:evenodd;clip-rule:evenodd;stroke-linejoin:round;stroke-miterlimit:2;">
    <g>
        <path d="M90.85,0.217L453.936,0.217C503.874,0.217 544.783,41.121 544.783,91.065L544.783,454.153C544.783,504.094 503.874,545 453.936,545L90.85,545C40.903,545 0,504.094 0,454.153L0,91.065C0,41.121 40.903,0.217 90.85,0.217Z" style="fill:url(#_Linear1);"/>
        <path d="M171.937,272.612C171.937,217.153 216.936,172.154 272.392,172.154C327.848,172.154 372.847,217.153 372.847,272.612C372.847,328.068 327.848,373.061 272.392,373.061C216.936,373.061 171.937,328.068 171.937,272.612ZM376.018,76.072L168.768,76.072C117.681,76.072 75.855,117.898 75.855,168.982L75.855,376.232C75.855,427.405 117.681,469.148 168.768,469.148L376.018,469.148C427.188,469.148 468.928,427.405 468.928,376.232L468.928,168.982C468.928,117.898 427.188,76.072 376.018,76.072ZM168.768,99.302L376.018,99.302C414.419,99.302 445.701,130.671 445.701,168.982L445.701,376.232C445.701,414.633 414.419,445.921 376.018,445.921L168.768,445.921C130.453,445.921 99.082,414.633 99.082,376.232L99.082,168.982C99.082,130.671 130.453,99.302 168.768,99.302ZM396.761,128.613C385.444,128.613 376.361,137.786 376.361,149.013C376.361,160.329 385.444,169.415 396.761,169.415C407.99,169.415 417.159,160.329 417.159,149.013C417.159,137.786 407.99,128.613 396.761,128.613ZM399.161,272.612C399.161,202.585 342.418,145.842 272.392,145.842C202.365,145.842 145.625,202.585 145.625,272.612C145.625,342.635 202.365,399.378 272.392,399.378C342.418,399.378 399.161,342.635 399.161,272.612Z" style="fill:white;"/>
    </g>
    <defs>
        <linearGradient id="_Linear1" x1="0" y1="0" x2="1" y2="0" gradientUnits="userSpaceOnUse" gradientTransform="matrix(-372.785,-337.718,337.718,-372.785,454.865,437.918)">
            <stop offset="0" style="stop-color:rgb(254,192,83);stop-opacity:1"/>
            <stop offset="0.2" style="stop-color:rgb(241,96,72);stop-opacity:1"/>
            <stop offset="0.3" style="stop-color:rgb(238,49,65);stop-opacity:1"/>
            <stop offset="0.4" style="stop-color:rgb(229,33,87);stop-opacity:1"/>
            <stop offset="0.5" style="stop-color:rgb(212,35,120);stop-opacity:1"/>
            <stop offset="0.6" style="stop-color:rgb(189,49,146);stop-opacity:1"/>
            <stop offset="0.9" style="stop-color:rgb(105,79,161);stop-opacity:1"/>
            <stop offset="1" style="stop-color:rgb(86,85,164);stop-opacity:1"/>
        </linearGradient>
    </defs>
</svg>
